{"glyphs":{"0":{"ha":828,"x_min":0,"x_max":0,"o":"m 414 53 b 596 513 567 53 596 254 b 414 964 596 771 550 964 b 232 513 278 964 232 771 b 414 53 232 254 261 53 m 69 513 b 414 1028 69 808 183 1028 b 758 513 644 1028 758 808 b 414 -12 758 215 644 -12 b 69 513 183 -12 69 215 "},"1":{"ha":625,"x_min":0,"x_max":0,"o":"m 43 835 l 432 1028 l 418 533 l 429 100 l 606 0 l 96 0 l 272 100 l 283 533 l 274 832 l 43 832 "},"2":{"ha":799,"x_min":0,"x_max":0,"o":"m 703 778 b 315 182 703 618 553 443 l 267 129 l 733 129 l 636 0 l 44 0 l 44 3 l 275 244 b 538 688 456 433 538 553 b 342 901 538 818 456 901 b 79 731 263 901 163 861 l 76 731 b 417 1028 128 917 247 1028 b 703 778 589 1028 703 913 "},"3":{"ha":728,"x_min":0,"x_max":0,"o":"m 71 258 l 171 75 b 275 60 201 67 238 60 b 519 272 419 60 519 156 b 219 508 519 393 414 508 l 161 508 l 160 513 l 196 526 b 474 753 383 599 474 664 b 304 901 474 825 414 901 b 57 769 219 901 121 856 l 54 769 b 374 1028 90 904 207 1028 b 611 825 521 1028 611 933 b 396 578 611 721 531 633 b 664 317 585 564 664 435 b 286 -14 664 163 526 -14 b 71 21 207 -14 113 7 "},"4":{"ha":917,"x_min":0,"x_max":0,"o":"m 635 246 l 639 100 l 789 0 l 333 0 l 483 100 l 486 246 l 22 246 l 642 1028 l 628 533 l 632 360 l 854 360 l 854 246 m 489 360 l 493 533 l 488 725 l 203 360 "},"5":{"ha":775,"x_min":0,"x_max":0,"o":"m 711 1014 l 644 875 l 253 875 l 221 689 b 667 383 453 740 667 622 b 285 -14 667 179 522 -14 b 67 21 203 -14 108 7 l 67 247 l 167 74 b 274 60 208 65 251 60 b 525 331 415 60 525 182 b 135 582 525 490 396 618 l 204 1001 l 204 1014 "},"6":{"ha":806,"x_min":0,"x_max":0,"o":"m 400 -14 b 69 371 204 -14 69 146 b 779 1028 69 686 344 1004 l 779 1025 b 278 586 533 950 367 797 b 442 664 319 635 371 664 b 715 328 604 664 715 490 b 400 -14 715 151 586 -14 m 232 371 b 419 49 232 172 321 50 b 554 304 518 47 554 168 b 381 588 554 467 501 588 b 261 536 335 588 290 569 b 232 371 240 467 232 419 m 239 501 l 239 500 "},"7":{"ha":808,"x_min":0,"x_max":0,"o":"m 338 0 l 222 0 l 638 889 l 183 882 l 69 733 l 67 911 l 67 1014 l 757 1014 "},"8":{"ha":779,"x_min":0,"x_max":0,"o":"m 717 271 b 396 -14 717 128 588 -14 b 63 254 210 -14 63 106 b 289 517 63 371 160 446 b 93 761 176 578 93 646 b 381 1028 93 906 203 1028 b 665 800 546 1028 665 936 b 469 554 665 693 590 610 b 717 271 594 471 717 393 m 225 263 b 400 42 225 128 307 42 b 557 222 499 42 557 135 b 335 483 557 331 451 414 b 225 263 251 425 225 358 m 251 811 b 414 588 251 700 338 636 b 511 789 474 619 511 697 b 378 971 511 906 454 971 b 251 811 292 971 251 889 "},"9":{"ha":806,"x_min":0,"x_max":0,"o":"m 406 1028 b 736 643 601 1028 736 868 b 26 -14 736 328 461 10 l 26 -11 b 528 428 272 64 439 217 b 364 350 486 379 435 350 b 90 686 201 350 90 524 b 406 1028 90 863 219 1028 m 251 710 b 425 426 251 547 304 426 b 544 478 471 426 515 444 b 574 643 565 547 574 594 b 386 965 574 842 485 964 b 251 710 288 967 251 846 m 567 514 l 567 513 "}," ":{"ha":422,"x_min":0,"x_max":0,"o":""},"A":{"ha":1110,"x_min":0,"x_max":0,"o":"m 928 90 l 1072 0 l 663 0 l 760 90 l 682 285 l 328 285 l 256 90 l 356 0 l 38 0 l 178 90 l 535 1043 m 653 356 l 497 740 l 354 356 "},"Á":{"ha":1110,"x_min":0,"x_max":0,"o":"m 928 90 l 1072 0 l 663 0 l 760 90 l 682 285 l 328 285 l 256 90 l 356 0 l 38 0 l 178 90 l 535 1043 m 653 356 l 497 740 l 354 356 "},"Â":{"ha":1110,"x_min":0,"x_max":0,"o":"m 928 90 l 1072 0 l 663 0 l 760 90 l 682 285 l 328 285 l 256 90 l 356 0 l 38 0 l 178 90 l 535 1043 m 653 356 l 497 740 l 354 356 "},"Ä":{"ha":1110,"x_min":0,"x_max":0,"o":"m 928 90 l 1072 0 l 663 0 l 760 90 l 682 285 l 328 285 l 256 90 l 356 0 l 38 0 l 178 90 l 535 1043 m 653 356 l 497 740 l 354 356 "},"B":{"ha":899,"x_min":0,"x_max":0,"o":"m 342 556 l 453 556 b 633 760 557 556 633 639 b 460 947 633 883 554 947 l 353 947 m 189 108 l 197 533 l 189 906 l 53 1014 l 489 1014 b 800 776 669 1014 800 924 b 607 540 800 628 674 551 b 838 276 714 529 838 433 b 482 0 838 107 700 0 l 53 0 m 353 67 l 456 67 b 664 267 581 67 664 144 b 443 489 664 401 572 489 l 342 489 "},"C":{"ha":1001,"x_min":0,"x_max":0,"o":"m 904 701 l 778 915 b 614 950 722 938 669 950 b 228 546 381 950 228 790 b 610 142 228 304 383 142 b 907 299 767 142 860 235 l 918 293 b 547 -14 890 153 781 -14 b 69 507 275 -14 69 190 b 618 1028 69 814 286 1028 b 904 951 726 1028 822 997 "},"Ć":{"ha":1001,"x_min":0,"x_max":0,"o":"m 904 701 l 778 915 b 614 950 722 938 669 950 b 228 546 381 950 228 790 b 610 142 228 304 383 142 b 907 299 767 142 860 235 l 918 293 b 547 -14 890 153 781 -14 b 69 507 275 -14 69 190 b 618 1028 69 814 286 1028 b 904 951 726 1028 822 997 "},"Č":{"ha":1001,"x_min":0,"x_max":0,"o":"m 904 701 l 778 915 b 614 950 722 938 669 950 b 228 546 381 950 228 790 b 610 142 228 304 383 142 b 907 299 767 142 860 235 l 918 293 b 547 -14 890 153 781 -14 b 69 507 275 -14 69 190 b 618 1028 69 814 286 1028 b 904 951 726 1028 822 997 "},"Ç":{"ha":1001,"x_min":0,"x_max":0,"o":"m 904 701 l 778 915 b 614 950 722 938 669 950 b 228 546 381 950 228 790 b 610 142 228 304 383 142 b 907 299 767 142 860 235 l 918 293 b 547 -14 890 153 781 -14 b 69 507 275 -14 69 190 b 618 1028 69 814 286 1028 b 904 951 726 1028 822 997 "},"D":{"ha":1192,"x_min":0,"x_max":0,"o":"m 561 67 b 933 485 796 67 933 275 b 496 947 933 771 758 947 l 353 947 l 342 533 l 353 67 l 561 67 m 189 108 l 197 533 l 189 906 l 53 1014 l 560 1014 b 1108 524 911 1014 1108 803 b 618 0 1108 247 901 0 l 53 0 "},"Ď":{"ha":1192,"x_min":0,"x_max":0,"o":"m 561 67 b 933 485 796 67 933 275 b 496 947 933 771 758 947 l 353 947 l 342 533 l 353 67 l 561 67 m 189 108 l 197 533 l 189 906 l 53 1014 l 560 1014 b 1108 524 911 1014 1108 803 b 618 0 1108 247 901 0 l 53 0 "},"E":{"ha":794,"x_min":0,"x_max":0,"o":"m 579 946 l 353 947 l 344 558 l 554 560 l 644 694 l 644 351 l 554 486 l 344 488 l 353 71 l 582 72 l 699 233 l 699 0 l 53 0 l 189 108 l 200 529 l 189 906 l 53 1014 l 696 1014 l 696 785 "},"É":{"ha":794,"x_min":0,"x_max":0,"o":"m 579 946 l 353 947 l 344 558 l 554 560 l 644 694 l 644 351 l 554 486 l 344 488 l 353 71 l 582 72 l 699 233 l 699 0 l 53 0 l 189 108 l 200 529 l 189 906 l 53 1014 l 696 1014 l 696 785 "},"Ě":{"ha":794,"x_min":0,"x_max":0,"o":"m 579 946 l 353 947 l 344 558 l 554 560 l 644 694 l 644 351 l 554 486 l 344 488 l 353 71 l 582 72 l 699 233 l 699 0 l 53 0 l 189 108 l 200 529 l 189 906 l 53 1014 l 696 1014 l 696 785 "},"Ë":{"ha":794,"x_min":0,"x_max":0,"o":"m 579 946 l 353 947 l 344 558 l 554 560 l 644 694 l 644 351 l 554 486 l 344 488 l 353 71 l 582 72 l 699 233 l 699 0 l 53 0 l 189 108 l 200 529 l 189 906 l 53 1014 l 696 1014 l 696 785 "},"F":{"ha":783,"x_min":0,"x_max":0,"o":"m 571 944 l 347 946 l 336 554 l 542 556 l 632 690 l 632 349 l 542 483 l 336 485 l 344 108 l 481 0 l 53 0 l 189 108 l 200 529 l 189 906 l 53 1014 l 688 1014 l 688 783 "},"G":{"ha":1136,"x_min":0,"x_max":0,"o":"m 667 531 l 1111 531 l 957 422 l 953 369 l 964 51 b 651 -12 899 24 790 -12 b 69 506 308 -12 69 207 b 647 1028 69 793 288 1028 b 964 953 765 1028 872 999 l 964 699 l 838 910 b 633 950 778 933 708 950 b 246 533 383 950 246 774 b 699 83 246 290 417 83 b 815 96 742 83 781 88 l 825 369 l 821 422 "},"H":{"ha":1253,"x_min":0,"x_max":0,"o":"m 189 108 l 200 533 l 189 906 l 53 1014 l 492 1014 l 356 906 l 346 567 l 907 567 l 897 906 l 761 1014 l 1200 1014 l 1064 906 l 1053 533 l 1064 108 l 1200 0 l 761 0 l 897 108 l 907 492 l 346 492 l 356 108 l 492 0 l 53 0 "},"I":{"ha":544,"x_min":0,"x_max":0,"o":"m 189 108 l 200 533 l 189 906 l 53 1014 l 492 1014 l 356 906 l 344 533 l 356 108 l 492 0 l 53 0 "},"Í":{"ha":544,"x_min":0,"x_max":0,"o":"m 189 108 l 200 533 l 189 906 l 53 1014 l 492 1014 l 356 906 l 344 533 l 356 108 l 492 0 l 53 0 "},"Î":{"ha":544,"x_min":0,"x_max":0,"o":"m 189 108 l 200 533 l 189 906 l 53 1014 l 492 1014 l 356 906 l 344 533 l 356 108 l 492 0 l 53 0 "},"J":{"ha":532,"x_min":0,"x_max":0,"o":"m 343 171 b 29 -344 343 -121 210 -218 l 21 -332 b 178 35 143 -224 169 -126 l 190 533 l 179 906 l 29 1014 l 496 1014 l 346 906 l 335 533 l 343 179 l 343 171 "},"K":{"ha":1128,"x_min":0,"x_max":0,"o":"m 189 108 l 200 533 l 189 906 l 53 1014 l 492 1014 l 356 906 l 344 533 l 347 413 l 738 915 l 629 1014 l 1044 1014 l 819 897 l 599 615 l 960 119 l 1100 -1 l 711 -1 l 768 107 l 501 489 l 350 296 l 356 108 l 492 0 l 53 0 "},"L":{"ha":826,"x_min":0,"x_max":0,"o":"m 189 108 l 200 533 l 189 906 l 53 1014 l 492 1014 l 356 906 l 344 533 l 357 67 l 601 68 l 736 269 l 736 0 l 53 0 "},"M":{"ha":1479,"x_min":0,"x_max":0,"o":"m 375 813 l 282 108 l 401 0 l 53 0 l 200 108 l 307 897 l 175 1014 l 471 1014 l 735 300 l 992 1014 l 1308 1014 l 1171 906 l 1206 533 l 1275 108 l 1426 0 l 993 0 l 1114 108 l 1063 533 l 1010 824 l 703 -14 l 697 -14 "},"N":{"ha":1311,"x_min":0,"x_max":0,"o":"m 1125 906 l 1125 -22 l 265 799 l 288 108 l 424 0 l 57 0 l 190 108 l 190 869 l 53 1014 l 276 1014 l 1050 269 l 1029 906 l 893 1014 l 1258 1014 "},"Ñ":{"ha":1311,"x_min":0,"x_max":0,"o":"m 1125 906 l 1125 -22 l 265 799 l 288 108 l 424 0 l 57 0 l 190 108 l 190 869 l 53 1014 l 276 1014 l 1050 269 l 1029 906 l 893 1014 l 1258 1014 "},"O":{"ha":1192,"x_min":0,"x_max":0,"o":"m 579 950 b 246 532 350 950 246 767 b 613 67 244 249 383 67 b 946 485 842 67 946 249 b 579 950 947 767 808 950 m 69 497 b 603 1028 69 785 267 1028 b 1122 519 915 1028 1122 804 b 590 -12 1122 231 926 -12 b 69 497 278 -12 69 211 "},"Ó":{"ha":1192,"x_min":0,"x_max":0,"o":"m 579 950 b 246 532 350 950 246 767 b 613 67 244 249 383 67 b 946 485 842 67 946 249 b 579 950 947 767 808 950 m 69 497 b 603 1028 69 785 267 1028 b 1122 519 915 1028 1122 804 b 590 -12 1122 231 926 -12 b 69 497 278 -12 69 211 "},"Ô":{"ha":1192,"x_min":0,"x_max":0,"o":"m 579 950 b 246 532 350 950 246 767 b 613 67 244 249 383 67 b 946 485 842 67 946 249 b 579 950 947 767 808 950 m 69 497 b 603 1028 69 785 267 1028 b 1122 519 915 1028 1122 804 b 590 -12 1122 231 926 -12 b 69 497 278 -12 69 211 "},"Ö":{"ha":1192,"x_min":0,"x_max":0,"o":"m 579 950 b 246 532 350 950 246 767 b 613 67 244 249 383 67 b 946 485 842 67 946 249 b 579 950 947 767 808 950 m 69 497 b 603 1028 69 785 267 1028 b 1122 519 915 1028 1122 804 b 590 -12 1122 231 926 -12 b 69 497 278 -12 69 211 "},"P":{"ha":914,"x_min":0,"x_max":0,"o":"m 189 108 l 200 533 l 189 906 l 53 1014 l 521 1014 b 843 750 725 1014 843 910 b 488 456 843 565 692 456 b 346 469 413 456 363 465 l 356 108 l 492 0 l 53 0 m 344 533 b 454 522 360 528 399 522 b 674 739 600 522 674 600 b 478 949 674 863 610 949 l 357 949 l 344 533 "},"Q":{"ha":1192,"x_min":0,"x_max":0,"o":"m 579 950 b 246 532 350 950 246 767 b 613 67 244 249 383 67 b 946 485 842 67 946 249 b 579 950 947 767 808 950 m 69 497 b 603 1028 69 785 267 1028 b 1122 519 915 1028 1122 804 b 701 -3 1122 264 969 44 l 1083 -256 l 825 -256 l 589 -12 b 69 497 278 -12 69 211 "},"R":{"ha":1114,"x_min":0,"x_max":0,"o":"m 189 108 l 200 533 l 189 906 l 53 1014 l 531 1014 b 864 761 717 1014 864 929 b 592 482 864 619 764 518 l 583 481 l 906 118 l 1063 0 l 671 0 l 714 108 l 413 469 l 346 469 l 356 108 l 492 0 l 53 0 m 458 540 b 694 754 594 540 694 607 b 482 944 694 871 611 944 l 357 944 l 344 540 "},"S":{"ha":661,"x_min":0,"x_max":0,"o":"m 42 760 b 375 1028 42 915 183 1028 b 564 992 440 1028 503 1015 l 564 699 l 419 950 b 360 957 399 954 378 957 b 185 783 253 957 185 876 b 283 639 185 707 239 667 b 468 538 335 608 418 569 b 617 294 547 489 617 417 b 264 -14 617 124 493 -14 b 53 31 193 -14 104 8 l 53 349 l 207 68 b 286 57 236 61 264 57 b 474 251 408 57 474 147 b 376 401 474 321 431 363 b 199 503 340 428 268 458 b 42 760 94 571 42 654 "},"T":{"ha":992,"x_min":0,"x_max":0,"o":"m 83 738 l 83 1014 l 908 1014 l 908 738 l 782 940 l 578 944 l 565 533 l 576 108 l 713 0 l 274 0 l 410 108 l 421 533 l 408 944 l 210 940 "},"U":{"ha":1140,"x_min":0,"x_max":0,"o":"m 40 1014 l 457 1014 l 321 906 l 304 318 b 593 71 300 147 435 71 b 876 351 757 71 882 157 l 858 906 l 722 1014 l 1096 1014 l 963 906 l 963 326 b 571 -14 963 107 800 -14 b 174 326 351 -14 174 108 l 174 906 "},"Ú":{"ha":1140,"x_min":0,"x_max":0,"o":"m 40 1014 l 457 1014 l 321 906 l 304 318 b 593 71 300 147 435 71 b 876 351 757 71 882 157 l 858 906 l 722 1014 l 1096 1014 l 963 906 l 963 326 b 571 -14 963 107 800 -14 b 174 326 351 -14 174 108 l 174 906 "},"Ü":{"ha":1140,"x_min":0,"x_max":0,"o":"m 40 1014 l 457 1014 l 321 906 l 304 318 b 593 71 300 147 435 71 b 876 351 757 71 882 157 l 858 906 l 722 1014 l 1096 1014 l 963 906 l 963 326 b 571 -14 963 107 800 -14 b 174 326 351 -14 174 108 l 174 906 "},"V":{"ha":1203,"x_min":0,"x_max":0,"o":"m 204 901 l 33 1014 l 507 1014 l 382 906 l 664 276 l 921 906 l 792 1014 l 1169 1014 l 1003 901 l 624 -14 l 619 -14 "},"W":{"ha":1607,"x_min":0,"x_max":0,"o":"m 200 924 l 33 1014 l 490 1014 l 375 924 l 586 328 l 776 868 l 724 1014 l 885 1014 l 1128 321 l 1326 924 l 1210 1014 l 1574 1014 l 1410 924 l 1096 -10 l 1092 -10 l 817 756 l 544 -10 l 540 -10 "},"X":{"ha":1088,"x_min":0,"x_max":0,"o":"m 39 1014 l 481 1014 l 363 915 l 564 618 l 776 915 l 633 1014 l 1032 1014 l 864 910 l 611 557 l 914 113 l 1071 0 l 629 0 l 744 104 l 518 438 l 279 104 l 418 0 l 18 0 l 186 104 l 469 499 l 188 915 "},"Y":{"ha":1071,"x_min":0,"x_max":0,"o":"m 165 910 l 7 1014 l 465 1014 l 329 915 l 583 401 l 829 915 l 663 1014 l 1071 1014 l 913 910 l 622 322 l 631 108 l 768 0 l 328 0 l 464 108 l 469 303 "},"Z":{"ha":917,"x_min":0,"x_max":0,"o":"m 847 1014 l 847 1006 l 290 68 l 688 74 l 822 301 l 822 0 l 69 0 l 69 8 l 622 946 l 256 940 l 119 739 l 119 1014 "},"a":{"ha":699,"x_min":0,"x_max":0,"o":"m 436 550 b 336 647 435 604 396 647 b 233 550 279 647 233 606 l 233 494 l 65 436 b 376 708 76 578 201 708 b 581 533 511 708 583 631 l 575 369 l 581 110 l 636 110 b 689 110 671 110 689 110 l 694 110 b 557 -8 688 50 629 -8 b 436 110 500 -8 443 26 b 243 -14 401 40 335 -14 b 64 154 133 -14 64 65 b 442 417 64 285 208 342 l 436 550 m 214 189 b 310 104 214 140 250 104 b 438 168 364 104 406 132 l 443 361 b 214 189 321 322 214 274 "},"á":{"ha":699,"x_min":0,"x_max":0,"o":"m 436 550 b 336 647 435 604 396 647 b 233 550 279 647 233 606 l 233 494 l 65 436 b 376 708 76 578 201 708 b 581 533 511 708 583 631 l 575 369 l 581 110 l 636 110 b 689 110 671 110 689 110 l 694 110 b 557 -8 688 50 629 -8 b 436 110 500 -8 443 26 b 243 -14 401 40 335 -14 b 64 154 133 -14 64 65 b 442 417 64 285 208 342 l 436 550 m 214 189 b 310 104 214 140 250 104 b 438 168 364 104 406 132 l 443 361 b 214 189 321 322 214 274 "},"â":{"ha":699,"x_min":0,"x_max":0,"o":"m 436 550 b 336 647 435 604 396 647 b 233 550 279 647 233 606 l 233 494 l 65 436 b 376 708 76 578 201 708 b 581 533 511 708 583 631 l 575 369 l 581 110 l 636 110 b 689 110 671 110 689 110 l 694 110 b 557 -8 688 50 629 -8 b 436 110 500 -8 443 26 b 243 -14 401 40 335 -14 b 64 154 133 -14 64 65 b 442 417 64 285 208 342 l 436 550 m 214 189 b 310 104 214 140 250 104 b 438 168 364 104 406 132 l 443 361 b 214 189 321 322 214 274 "},"ä":{"ha":699,"x_min":0,"x_max":0,"o":"m 436 550 b 336 647 435 604 396 647 b 233 550 279 647 233 606 l 233 494 l 65 436 b 376 708 76 578 201 708 b 581 533 511 708 583 631 l 575 369 l 581 110 l 636 110 b 689 110 671 110 689 110 l 694 110 b 557 -8 688 50 629 -8 b 436 110 500 -8 443 26 b 243 -14 401 40 335 -14 b 64 154 133 -14 64 65 b 442 417 64 285 208 342 l 436 550 m 214 189 b 310 104 214 140 250 104 b 438 168 364 104 406 132 l 443 361 b 214 189 321 322 214 274 "},"à":{"ha":699,"x_min":0,"x_max":0,"o":"m 436 550 b 336 647 435 604 396 647 b 233 550 279 647 233 606 l 233 494 l 65 436 b 376 708 76 578 201 708 b 581 533 511 708 583 631 l 575 369 l 581 110 l 636 110 b 689 110 671 110 689 110 l 694 110 b 557 -8 688 50 629 -8 b 436 110 500 -8 443 26 b 243 -14 401 40 335 -14 b 64 154 133 -14 64 65 b 442 417 64 285 208 342 l 436 550 m 214 189 b 310 104 214 140 250 104 b 438 168 364 104 406 132 l 443 361 b 214 189 321 322 214 274 "},"b":{"ha":882,"x_min":0,"x_max":0,"o":"m 288 556 b 510 708 314 615 375 708 b 824 357 678 708 824 567 b 465 -14 824 143 663 -14 b 275 43 392 -14 328 7 l 146 -14 l 157 533 l 147 944 l 46 985 l 301 1076 m 297 129 b 463 60 335 93 394 60 b 679 328 579 60 679 160 b 461 592 679 496 583 592 b 288 507 396 592 331 564 "},"c":{"ha":692,"x_min":0,"x_max":0,"o":"m 633 449 l 535 625 b 429 647 499 639 463 647 b 186 374 283 647 186 526 b 439 119 186 213 300 119 b 635 203 536 119 603 165 l 643 199 b 389 -14 624 101 546 -14 b 57 347 221 -14 57 128 b 426 708 57 564 204 708 b 633 656 510 708 576 688 "},"ć":{"ha":692,"x_min":0,"x_max":0,"o":"m 633 449 l 535 625 b 429 647 499 639 463 647 b 186 374 283 647 186 526 b 439 119 186 213 300 119 b 635 203 536 119 603 165 l 643 199 b 389 -14 624 101 546 -14 b 57 347 221 -14 57 128 b 426 708 57 564 204 708 b 633 656 510 708 576 688 "},"č":{"ha":692,"x_min":0,"x_max":0,"o":"m 633 449 l 535 625 b 429 647 499 639 463 647 b 186 374 283 647 186 526 b 439 119 186 213 300 119 b 635 203 536 119 603 165 l 643 199 b 389 -14 624 101 546 -14 b 57 347 221 -14 57 128 b 426 708 57 564 204 708 b 633 656 510 708 576 688 "},"ç":{"ha":692,"x_min":0,"x_max":0,"o":"m 633 449 l 535 625 b 429 647 499 639 463 647 b 186 374 283 647 186 526 b 439 119 186 213 300 119 b 635 203 536 119 603 165 l 643 199 b 389 -14 624 101 546 -14 b 57 347 221 -14 57 128 b 426 708 57 564 204 708 b 633 656 510 708 576 688 "},"d":{"ha":875,"x_min":0,"x_max":0,"o":"m 479 985 l 735 1076 l 724 533 l 733 72 l 842 0 l 582 0 l 585 125 b 363 -14 553 65 483 -14 b 57 338 194 -14 57 128 b 421 708 57 551 218 708 b 589 665 485 708 542 693 l 582 944 m 201 367 b 419 103 201 199 297 103 b 586 182 482 103 543 129 l 593 533 l 592 563 b 424 635 554 599 494 635 b 201 367 301 635 201 535 "},"e":{"ha":704,"x_min":0,"x_max":0,"o":"m 379 -14 b 57 353 211 -14 57 128 b 388 708 57 564 204 708 b 651 413 593 708 675 540 l 189 413 b 188 383 188 403 188 393 b 439 119 188 210 296 119 b 639 204 536 119 607 165 l 647 200 b 379 -14 629 101 532 -14 m 504 476 b 372 649 513 567 463 649 b 196 469 278 649 217 575 "},"é":{"ha":704,"x_min":0,"x_max":0,"o":"m 379 -14 b 57 353 211 -14 57 128 b 388 708 57 564 204 708 b 651 413 593 708 675 540 l 189 413 b 188 383 188 403 188 393 b 439 119 188 210 296 119 b 639 204 536 119 607 165 l 647 200 b 379 -14 629 101 532 -14 m 504 476 b 372 649 513 567 463 649 b 196 469 278 649 217 575 "},"ě":{"ha":704,"x_min":0,"x_max":0,"o":"m 379 -14 b 57 353 211 -14 57 128 b 388 708 57 564 204 708 b 651 413 593 708 675 540 l 189 413 b 188 383 188 403 188 393 b 439 119 188 210 296 119 b 639 204 536 119 607 165 l 647 200 b 379 -14 629 101 532 -14 m 504 476 b 372 649 513 567 463 649 b 196 469 278 649 217 575 "},"ê":{"ha":704,"x_min":0,"x_max":0,"o":"m 379 -14 b 57 353 211 -14 57 128 b 388 708 57 564 204 708 b 651 413 593 708 675 540 l 189 413 b 188 383 188 403 188 393 b 439 119 188 210 296 119 b 639 204 536 119 607 165 l 647 200 b 379 -14 629 101 532 -14 m 504 476 b 372 649 513 567 463 649 b 196 469 278 649 217 575 "},"ë":{"ha":704,"x_min":0,"x_max":0,"o":"m 379 -14 b 57 353 211 -14 57 128 b 388 708 57 564 204 708 b 651 413 593 708 675 540 l 189 413 b 188 383 188 403 188 393 b 439 119 188 210 296 119 b 639 204 536 119 607 165 l 647 200 b 379 -14 629 101 532 -14 m 504 476 b 372 649 513 567 463 649 b 196 469 278 649 217 575 "},"è":{"ha":704,"x_min":0,"x_max":0,"o":"m 379 -14 b 57 353 211 -14 57 128 b 388 708 57 564 204 708 b 651 413 593 708 675 540 l 189 413 b 188 383 188 403 188 393 b 439 119 188 210 296 119 b 639 204 536 119 607 165 l 647 200 b 379 -14 629 101 532 -14 m 504 476 b 372 649 513 567 463 649 b 196 469 278 649 217 575 "},"f":{"ha":693,"x_min":0,"x_max":0,"o":"m 511 918 b 413 1018 511 974 467 1018 b 313 918 354 1018 314 974 l 308 694 l 508 694 l 508 600 l 306 600 l 304 533 l 314 72 l 422 3 l 293 0 l 56 0 l 164 72 l 174 533 l 174 600 l 22 600 l 22 603 l 119 694 l 172 694 l 171 806 b 432 1076 169 982 272 1076 b 640 925 568 1076 640 999 l 511 879 l 511 918 "},"g":{"ha":794,"x_min":0,"x_max":0,"o":"m 650 461 b 372 217 650 336 542 217 b 271 233 336 217 301 222 b 210 165 222 217 210 189 b 283 111 210 139 238 111 l 490 111 b 731 -85 692 111 731 -19 b 365 -347 731 -225 578 -347 b 51 -162 182 -347 51 -269 b 207 -14 51 -81 136 -37 b 88 107 154 -11 88 35 b 231 250 88 176 157 226 b 90 467 143 296 90 381 b 371 708 90 594 203 708 b 564 642 450 708 517 683 l 751 726 l 751 600 l 604 600 b 650 461 633 560 650 511 m 190 -136 b 413 -285 190 -203 249 -285 b 613 -131 532 -285 613 -215 b 485 -14 613 -86 582 -14 l 271 -14 b 190 -136 204 -42 190 -90 m 243 475 b 378 278 243 357 290 278 b 497 453 469 278 497 361 b 364 647 497 572 453 647 b 243 475 274 647 243 568 "},"h":{"ha":832,"x_min":0,"x_max":0,"o":"m 406 0 l 39 0 l 147 72 l 157 533 l 147 944 l 46 985 l 167 1028 l 299 1076 l 288 547 b 497 708 325 642 399 708 b 693 499 638 708 694 576 l 690 369 l 699 72 l 808 0 l 442 0 l 551 72 l 560 369 l 557 472 b 433 592 557 547 501 592 b 288 504 378 592 333 569 l 297 72 "},"i":{"ha":442,"x_min":0,"x_max":0,"o":"m 413 0 l 46 0 l 156 72 l 164 369 l 156 593 l 50 639 l 306 708 l 294 369 l 303 72 m 224 1079 l 358 951 l 224 824 l 89 951 "},"í":{"ha":442,"x_min":0,"x_max":0,"o":"m 413 0 l 46 0 l 156 72 l 164 369 l 156 593 l 50 639 l 306 708 l 294 369 l 303 72 m 224 1079 l 358 951 l 224 824 l 89 951 "},"î":{"ha":442,"x_min":0,"x_max":0,"o":"m 413 0 l 46 0 l 156 72 l 164 369 l 156 593 l 50 639 l 306 708 l 294 369 l 303 72 m 224 1079 l 358 951 l 224 824 l 89 951 "},"j":{"ha":396,"x_min":0,"x_max":0,"o":"m 286 56 l 286 54 b 22 -349 285 -117 213 -243 l 18 -342 b 147 42 126 -210 147 -157 l 153 369 l 144 593 l 39 639 l 294 708 l 283 369 l 286 61 m 213 1079 l 347 951 l 213 824 l 78 951 "},"k":{"ha":840,"x_min":0,"x_max":0,"o":"m 53 985 l 174 1028 l 306 1076 l 294 533 l 299 307 l 561 618 l 518 694 l 796 694 l 638 608 l 499 443 l 819 0 l 518 0 l 586 72 l 404 331 l 301 208 l 304 72 l 413 0 l 46 0 l 154 72 l 164 533 l 154 944 "},"l":{"ha":446,"x_min":0,"x_max":0,"o":"m 53 985 l 174 1028 l 306 1076 l 294 533 l 304 72 l 413 3 l 283 0 l 46 0 l 154 72 l 164 533 l 154 944 "},"m":{"ha":1165,"x_min":0,"x_max":0,"o":"m 400 0 l 32 0 l 142 72 l 150 369 l 142 576 l 39 617 l 293 708 l 288 551 b 481 708 321 639 388 708 b 650 564 575 708 629 632 b 843 708 688 639 744 708 b 1033 499 971 708 1035 576 l 1032 369 l 1040 72 l 1149 0 l 785 0 l 893 72 l 901 369 l 899 471 b 783 590 899 546 850 590 b 658 518 736 590 697 574 l 658 506 l 657 369 l 665 72 l 774 0 l 410 0 l 518 72 l 526 369 l 524 471 b 415 590 524 546 476 590 b 286 497 365 590 325 560 l 282 369 l 290 72 "},"n":{"ha":818,"x_min":0,"x_max":0,"o":"m 399 0 l 32 0 l 142 72 l 150 369 l 142 576 l 39 617 l 160 660 l 292 708 l 288 561 b 490 708 325 649 396 708 b 686 499 631 708 688 576 l 683 369 l 692 72 l 801 0 l 435 0 l 544 72 l 553 369 l 550 472 b 425 592 550 547 494 592 b 285 510 372 592 324 565 l 281 369 l 289 72 "},"ñ":{"ha":818,"x_min":0,"x_max":0,"o":"m 399 0 l 32 0 l 142 72 l 150 369 l 142 576 l 39 617 l 160 660 l 292 708 l 288 561 b 490 708 325 649 396 708 b 686 499 631 708 688 576 l 683 369 l 692 72 l 801 0 l 435 0 l 544 72 l 553 369 l 550 472 b 425 592 550 547 494 592 b 285 510 372 592 324 565 l 281 369 l 289 72 "},"o":{"ha":842,"x_min":0,"x_max":0,"o":"m 422 -14 b 57 349 196 -14 57 164 b 421 708 57 533 203 708 b 783 347 647 708 783 532 b 422 -14 783 163 642 -14 m 226 374 b 436 53 226 178 304 53 b 614 322 567 53 614 178 b 407 642 614 518 538 642 b 226 374 276 642 226 518 "},"ó":{"ha":842,"x_min":0,"x_max":0,"o":"m 422 -14 b 57 349 196 -14 57 164 b 421 708 57 533 203 708 b 783 347 647 708 783 532 b 422 -14 783 163 642 -14 m 226 374 b 436 53 226 178 304 53 b 614 322 567 53 614 178 b 407 642 614 518 538 642 b 226 374 276 642 226 518 "},"ô":{"ha":842,"x_min":0,"x_max":0,"o":"m 422 -14 b 57 349 196 -14 57 164 b 421 708 57 533 203 708 b 783 347 647 708 783 532 b 422 -14 783 163 642 -14 m 226 374 b 436 53 226 178 304 53 b 614 322 567 53 614 178 b 407 642 614 518 538 642 b 226 374 276 642 226 518 "},"ö":{"ha":842,"x_min":0,"x_max":0,"o":"m 422 -14 b 57 349 196 -14 57 164 b 421 708 57 533 203 708 b 783 347 647 708 783 532 b 422 -14 783 163 642 -14 m 226 374 b 436 53 226 178 304 53 b 614 322 567 53 614 178 b 407 642 614 518 538 642 b 226 374 276 642 226 518 "},"p":{"ha":882,"x_min":0,"x_max":0,"o":"m 290 554 b 506 708 317 615 372 708 b 824 357 674 708 824 567 b 469 -14 824 143 676 -14 b 285 31 406 -14 336 3 l 290 -261 l 399 -333 l 32 -333 l 140 -261 l 150 207 l 140 576 l 39 617 l 294 708 m 282 133 b 467 60 319 96 396 60 b 679 328 593 60 679 160 b 461 592 679 496 583 592 b 289 508 396 592 331 564 l 281 207 "},"q":{"ha":858,"x_min":0,"x_max":0,"o":"m 565 -261 l 576 107 b 371 -14 544 51 483 -14 b 57 338 203 -14 57 128 b 415 708 57 551 218 708 b 604 653 488 708 551 688 l 728 708 l 710 204 l 717 -261 l 825 -333 l 456 -333 m 201 367 b 419 103 201 199 297 103 b 578 171 478 103 536 125 l 579 204 l 576 571 b 418 635 539 604 482 635 b 201 367 301 635 201 535 "},"r":{"ha":583,"x_min":0,"x_max":0,"o":"m 549 536 b 425 586 507 574 469 586 b 285 500 381 586 328 572 l 281 369 l 289 72 l 399 0 l 32 0 l 142 72 l 150 369 l 142 576 l 39 617 l 160 660 l 292 708 l 286 546 b 465 708 322 653 390 708 b 549 685 489 708 521 703 l 549 536 "},"s":{"ha":572,"x_min":0,"x_max":0,"o":"m 63 503 b 297 708 63 618 158 708 b 485 671 375 708 460 681 l 485 456 l 386 619 b 296 635 351 629 318 635 b 190 535 232 635 190 588 b 274 431 190 488 224 453 b 400 382 301 419 363 400 b 519 201 453 357 519 307 b 278 -14 519 78 422 -14 b 69 25 194 -14 90 15 l 69 235 l 169 76 b 269 60 203 67 239 60 b 393 164 338 60 393 101 b 322 265 393 213 360 247 b 171 326 294 278 208 307 b 63 503 124 351 63 411 "},"t":{"ha":547,"x_min":0,"x_max":0,"o":"m 160 393 l 154 600 l 21 600 l 21 603 l 153 694 l 311 869 l 307 694 l 489 694 l 489 600 l 304 600 l 299 393 l 304 190 b 390 103 306 138 338 103 b 485 150 432 103 468 125 l 492 146 b 318 -14 475 57 404 -14 b 156 143 231 -14 154 57 "},"u":{"ha":807,"x_min":0,"x_max":0,"o":"m 417 617 l 538 660 l 669 708 l 658 369 l 667 118 l 769 78 l 649 35 l 517 -14 l 521 124 b 322 -14 483 42 411 -14 b 144 192 176 -14 143 114 l 147 369 l 139 576 l 36 617 l 157 660 l 289 708 l 278 369 l 281 222 b 393 103 285 147 325 103 b 522 178 440 103 482 128 l 528 369 l 519 576 "},"ú":{"ha":807,"x_min":0,"x_max":0,"o":"m 417 617 l 538 660 l 669 708 l 658 369 l 667 118 l 769 78 l 649 35 l 517 -14 l 521 124 b 322 -14 483 42 411 -14 b 144 192 176 -14 143 114 l 147 369 l 139 576 l 36 617 l 157 660 l 289 708 l 278 369 l 281 222 b 393 103 285 147 325 103 b 522 178 440 103 482 128 l 528 369 l 519 576 "},"û":{"ha":807,"x_min":0,"x_max":0,"o":"m 417 617 l 538 660 l 669 708 l 658 369 l 667 118 l 769 78 l 649 35 l 517 -14 l 521 124 b 322 -14 483 42 411 -14 b 144 192 176 -14 143 114 l 147 369 l 139 576 l 36 617 l 157 660 l 289 708 l 278 369 l 281 222 b 393 103 285 147 325 103 b 522 178 440 103 482 128 l 528 369 l 519 576 "},"ü":{"ha":807,"x_min":0,"x_max":0,"o":"m 417 617 l 538 660 l 669 708 l 658 369 l 667 118 l 769 78 l 649 35 l 517 -14 l 521 124 b 322 -14 483 42 411 -14 b 144 192 176 -14 143 114 l 147 369 l 139 576 l 36 617 l 157 660 l 289 708 l 278 369 l 281 222 b 393 103 285 147 325 103 b 522 178 440 103 482 128 l 528 369 l 519 576 "},"ù":{"ha":807,"x_min":0,"x_max":0,"o":"m 417 617 l 538 660 l 669 708 l 658 369 l 667 118 l 769 78 l 649 35 l 517 -14 l 521 124 b 322 -14 483 42 411 -14 b 144 192 176 -14 143 114 l 147 369 l 139 576 l 36 617 l 157 660 l 289 708 l 278 369 l 281 222 b 393 103 285 147 325 103 b 522 178 440 103 482 128 l 528 369 l 519 576 "},"v":{"ha":899,"x_min":0,"x_max":0,"o":"m 167 614 l 28 694 l 410 694 l 328 614 l 501 231 l 658 614 l 572 694 l 871 694 l 731 614 l 469 -14 l 467 -14 "},"w":{"ha":1140,"x_min":0,"x_max":0,"o":"m 165 614 l 28 694 l 411 694 l 321 614 l 435 289 l 547 613 l 517 694 l 669 694 l 811 300 l 910 614 l 815 694 l 1113 694 l 979 614 l 776 -10 l 775 -10 l 583 513 l 399 -10 l 396 -10 "},"x":{"ha":978,"x_min":0,"x_max":0,"o":"m 31 694 l 417 694 l 363 614 l 492 454 l 615 614 l 558 694 l 844 694 l 692 604 l 535 407 l 793 90 l 947 0 l 561 0 l 617 82 l 447 293 l 282 82 l 338 0 l 49 0 l 203 90 l 404 340 l 186 604 "},"y":{"ha":897,"x_min":0,"x_max":0,"o":"m 326 -156 l 428 78 l 172 614 l 33 694 l 414 694 l 331 614 l 499 244 l 650 614 l 564 694 l 869 694 l 735 614 l 353 -300 l 104 -300 "},"z":{"ha":704,"x_min":0,"x_max":0,"o":"m 661 694 l 661 689 l 232 58 l 501 63 l 650 264 l 635 22 l 633 0 l 43 0 l 43 6 l 469 636 l 210 632 l 83 444 l 83 694 "},".":{"ha":340,"x_min":0,"x_max":0,"o":"m 300 114 l 171 -12 l 40 114 l 171 239 "},",":{"ha":360,"x_min":0,"x_max":0,"o":"m 19 -257 l 36 -257 l 318 172 l 119 172 "},":":{"ha":349,"x_min":0,"x_max":0,"o":"m 304 114 l 175 -12 l 44 114 l 175 239 m 175 697 l 304 572 l 175 446 l 44 572 "},";":{"ha":839,"x_min":0,"x_max":0,"o":""},"…":{"ha":340,"x_min":0,"x_max":0,"o":"m 300 114 l 171 -12 l 40 114 l 171 239 "},"!":{"ha":839,"x_min":0,"x_max":0,"o":""},"¡":{"ha":839,"x_min":0,"x_max":0,"o":""},"?":{"ha":839,"x_min":0,"x_max":0,"o":""},"¿":{"ha":839,"x_min":0,"x_max":0,"o":""},"·":{"ha":839,"x_min":0,"x_max":0,"o":""},"•":{"ha":839,"x_min":0,"x_max":0,"o":""},"*":{"ha":839,"x_min":0,"x_max":0,"o":""},"#":{"ha":839,"x_min":0,"x_max":0,"o":""},"/":{"ha":628,"x_min":0,"x_max":0,"o":"m 144 0 l 32 0 l 485 1014 l 596 1014 "},"\\":{"ha":839,"x_min":0,"x_max":0,"o":""},"-":{"ha":490,"x_min":0,"x_max":0,"o":"m 431 400 l 60 400 l 60 532 l 431 532 "},"–":{"ha":817,"x_min":0,"x_max":0,"o":"m 757 411 l 60 411 l 60 517 l 757 517 "},"—":{"ha":839,"x_min":0,"x_max":0,"o":""},"_":{"ha":839,"x_min":0,"x_max":0,"o":""},"(":{"ha":839,"x_min":0,"x_max":0,"o":""},")":{"ha":839,"x_min":0,"x_max":0,"o":""},"{":{"ha":839,"x_min":0,"x_max":0,"o":""},"}":{"ha":839,"x_min":0,"x_max":0,"o":""},"[":{"ha":839,"x_min":0,"x_max":0,"o":""},"]":{"ha":839,"x_min":0,"x_max":0,"o":""},"‚":{"ha":360,"x_min":0,"x_max":0,"o":"m 19 -257 l 36 -257 l 318 172 l 119 172 "},"„":{"ha":360,"x_min":0,"x_max":0,"o":"m 19 -257 l 36 -257 l 318 172 l 119 172 "},"“":{"ha":839,"x_min":0,"x_max":0,"o":""},"”":{"ha":839,"x_min":0,"x_max":0,"o":""},"‘":{"ha":839,"x_min":0,"x_max":0,"o":""},"’":{"ha":415,"x_min":0,"x_max":0,"o":"m 58 633 l 75 633 l 357 1063 l 158 1063 "},"«":{"ha":839,"x_min":0,"x_max":0,"o":""},"»":{"ha":839,"x_min":0,"x_max":0,"o":""},"‹":{"ha":839,"x_min":0,"x_max":0,"o":""},"›":{"ha":839,"x_min":0,"x_max":0,"o":""},"\"":{"ha":839,"x_min":0,"x_max":0,"o":""},"'":{"ha":839,"x_min":0,"x_max":0,"o":""},"$":{"ha":839,"x_min":0,"x_max":0,"o":""},"€":{"ha":839,"x_min":0,"x_max":0,"o":""},"£":{"ha":839,"x_min":0,"x_max":0,"o":""},"¥":{"ha":839,"x_min":0,"x_max":0,"o":""},"+":{"ha":839,"x_min":0,"x_max":0,"o":""},"−":{"ha":839,"x_min":0,"x_max":0,"o":""},"×":{"ha":839,"x_min":0,"x_max":0,"o":""},"÷":{"ha":839,"x_min":0,"x_max":0,"o":""},"=":{"ha":839,"x_min":0,"x_max":0,"o":""},"≠":{"ha":839,"x_min":0,"x_max":0,"o":""},">":{"ha":839,"x_min":0,"x_max":0,"o":""},"<":{"ha":839,"x_min":0,"x_max":0,"o":""},"≥":{"ha":839,"x_min":0,"x_max":0,"o":""},"≤":{"ha":839,"x_min":0,"x_max":0,"o":""},"±":{"ha":839,"x_min":0,"x_max":0,"o":""},"≈":{"ha":839,"x_min":0,"x_max":0,"o":""},"~":{"ha":839,"x_min":0,"x_max":0,"o":""},"^":{"ha":839,"x_min":0,"x_max":0,"o":""},"%":{"ha":839,"x_min":0,"x_max":0,"o":""},"‰":{"ha":839,"x_min":0,"x_max":0,"o":""},"↑":{"ha":839,"x_min":0,"x_max":0,"o":""},"↗":{"ha":839,"x_min":0,"x_max":0,"o":""},"→":{"ha":839,"x_min":0,"x_max":0,"o":""},"↘":{"ha":839,"x_min":0,"x_max":0,"o":""},"↓":{"ha":839,"x_min":0,"x_max":0,"o":""},"↙":{"ha":839,"x_min":0,"x_max":0,"o":""},"←":{"ha":839,"x_min":0,"x_max":0,"o":""},"↖":{"ha":839,"x_min":0,"x_max":0,"o":""},"̈":{"ha":0,"x_min":0,"x_max":0,"o":""},"́":{"ha":0,"x_min":0,"x_max":0,"o":""},"̂":{"ha":0,"x_min":0,"x_max":0,"o":""},"̌":{"ha":0,"x_min":0,"x_max":0,"o":""},"̃":{"ha":0,"x_min":0,"x_max":0,"o":""},"̧":{"ha":0,"x_min":0,"x_max":0,"o":""}}}
